<mxfile host="653daf89-ed56-4190-8af8-33e215ef1024" modified="2020-07-15T02:12:05.128Z" agent="5.0 (Macintosh; Intel Mac OS X 10_15_5) AppleWebKit/537.36 (KHTML, like Gecko) Code/1.47.0 Chrome/78.0.3904.130 Electron/7.3.2 Safari/537.36" etag="MbOKAvdMjdw38gAjvS4d" version="13.1.3">
    <diagram id="6hGFLwfOUW9BJ-s0fimq" name="Page-1">
        <mxGraphModel dx="1834" dy="1886" grid="1" gridSize="10" guides="1" tooltips="1" connect="1" arrows="1" fold="1" page="1" pageScale="1" pageWidth="827" pageHeight="1169" math="0" shadow="0">
            <root>
                <mxCell id="0"/>
                <mxCell id="1" parent="0"/>
                <mxCell id="116" value="" style="rounded=0;whiteSpace=wrap;html=1;" vertex="1" parent="1">
                    <mxGeometry x="480" y="-828" width="795" height="488" as="geometry"/>
                </mxCell>
                <mxCell id="67" value="" style="rounded=0;whiteSpace=wrap;html=1;" vertex="1" parent="1">
                    <mxGeometry x="-800" y="-990" width="1140" height="740" as="geometry"/>
                </mxCell>
                <mxCell id="3" value="" style="rounded=0;whiteSpace=wrap;html=1;" vertex="1" parent="1">
                    <mxGeometry x="-641" y="-880" width="861" height="300" as="geometry"/>
                </mxCell>
                <mxCell id="4" value="" style="rounded=0;whiteSpace=wrap;html=1;" vertex="1" parent="1">
                    <mxGeometry x="151.5" y="-480" width="100" height="160" as="geometry"/>
                </mxCell>
                <mxCell id="5" value="Reco!" style="text;html=1;align=center;verticalAlign=middle;resizable=0;points=[];autosize=1;" vertex="1" parent="1">
                    <mxGeometry x="176.5" y="-320" width="50" height="20" as="geometry"/>
                </mxCell>
                <mxCell id="6" value="" style="rounded=0;whiteSpace=wrap;html=1;" vertex="1" parent="1">
                    <mxGeometry x="-690" y="-460" width="80" height="120" as="geometry"/>
                </mxCell>
                <mxCell id="7" value="" style="rounded=0;whiteSpace=wrap;html=1;" vertex="1" parent="1">
                    <mxGeometry x="-678" y="-450" width="55" height="90" as="geometry"/>
                </mxCell>
                <mxCell id="8" value="" style="ellipse;whiteSpace=wrap;html=1;aspect=fixed;" vertex="1" parent="1">
                    <mxGeometry x="-655.5" y="-355" width="10" height="10" as="geometry"/>
                </mxCell>
                <mxCell id="12" value="Chrome" style="rounded=0;whiteSpace=wrap;html=1;" vertex="1" parent="1">
                    <mxGeometry x="-674" y="-430" width="47" height="60" as="geometry"/>
                </mxCell>
                <mxCell id="13" value="Swift" style="text;html=1;align=center;verticalAlign=middle;resizable=0;points=[];autosize=1;" vertex="1" parent="1">
                    <mxGeometry x="-678" y="-450" width="40" height="20" as="geometry"/>
                </mxCell>
                <mxCell id="14" value="user" style="text;html=1;align=center;verticalAlign=middle;resizable=0;points=[];autosize=1;" vertex="1" parent="1">
                    <mxGeometry x="-670.5" y="-340" width="40" height="20" as="geometry"/>
                </mxCell>
                <mxCell id="16" value="49170" style="rounded=0;whiteSpace=wrap;html=1;" vertex="1" parent="1">
                    <mxGeometry x="-560" y="-580" width="60" height="30" as="geometry"/>
                </mxCell>
                <mxCell id="21" value="" style="endArrow=classic;startArrow=classic;html=1;exitX=1;exitY=0.5;exitDx=0;exitDy=0;" edge="1" parent="1" source="6">
                    <mxGeometry width="50" height="50" relative="1" as="geometry">
                        <mxPoint x="-530" y="-290" as="sourcePoint"/>
                        <mxPoint x="-530" y="-550" as="targetPoint"/>
                        <Array as="points">
                            <mxPoint x="-530" y="-400"/>
                        </Array>
                    </mxGeometry>
                </mxCell>
                <mxCell id="22" value="" style="rounded=0;whiteSpace=wrap;html=1;" vertex="1" parent="1">
                    <mxGeometry x="-605.5" y="-820" width="156.5" height="100" as="geometry"/>
                </mxCell>
                <mxCell id="23" value="userappコンテナ" style="text;html=1;align=center;verticalAlign=middle;resizable=0;points=[];autosize=1;" vertex="1" parent="1">
                    <mxGeometry x="-630.5" y="-840" width="110" height="20" as="geometry"/>
                </mxCell>
                <mxCell id="24" value="8090" style="rounded=0;whiteSpace=wrap;html=1;" vertex="1" parent="1">
                    <mxGeometry x="-560" y="-720" width="60" height="30" as="geometry"/>
                </mxCell>
                <mxCell id="25" value="" style="endArrow=classic;startArrow=classic;html=1;" edge="1" parent="1" source="16">
                    <mxGeometry width="50" height="50" relative="1" as="geometry">
                        <mxPoint x="-579" y="-640" as="sourcePoint"/>
                        <mxPoint x="-529" y="-690" as="targetPoint"/>
                    </mxGeometry>
                </mxCell>
                <mxCell id="26" value="req" style="text;html=1;align=center;verticalAlign=middle;resizable=0;points=[];autosize=1;" vertex="1" parent="1">
                    <mxGeometry x="-560" y="-680" width="30" height="20" as="geometry"/>
                </mxCell>
                <mxCell id="27" value="res" style="text;html=1;align=center;verticalAlign=middle;resizable=0;points=[];autosize=1;" vertex="1" parent="1">
                    <mxGeometry x="-605.5" y="-400" width="30" height="20" as="geometry"/>
                </mxCell>
                <mxCell id="28" value="webapp" style="rounded=0;whiteSpace=wrap;html=1;" vertex="1" parent="1">
                    <mxGeometry x="-590" y="-780" width="120" height="50" as="geometry"/>
                </mxCell>
                <mxCell id="29" value="Node:8" style="text;html=1;align=center;verticalAlign=middle;resizable=0;points=[];autosize=1;" vertex="1" parent="1">
                    <mxGeometry x="-605.5" y="-820" width="50" height="20" as="geometry"/>
                </mxCell>
                <mxCell id="30" value="/usr/src/app" style="text;html=1;align=center;verticalAlign=middle;resizable=0;points=[];autosize=1;" vertex="1" parent="1">
                    <mxGeometry x="-600.5" y="-800" width="80" height="20" as="geometry"/>
                </mxCell>
                <mxCell id="31" value="DBのGUI操作のため" style="rounded=0;whiteSpace=wrap;html=1;" vertex="1" parent="1">
                    <mxGeometry x="-394" y="-820" width="156.5" height="100" as="geometry"/>
                </mxCell>
                <mxCell id="32" value="" style="rounded=0;whiteSpace=wrap;html=1;" vertex="1" parent="1">
                    <mxGeometry x="-181" y="-820" width="156.5" height="100" as="geometry"/>
                </mxCell>
                <mxCell id="33" value="" style="rounded=0;whiteSpace=wrap;html=1;" vertex="1" parent="1">
                    <mxGeometry x="31.5" y="-820" width="156.5" height="100" as="geometry"/>
                </mxCell>
                <mxCell id="34" value="phpMyAdminコンテナ" style="text;html=1;align=center;verticalAlign=middle;resizable=0;points=[];autosize=1;" vertex="1" parent="1">
                    <mxGeometry x="-410" y="-840" width="130" height="20" as="geometry"/>
                </mxCell>
                <mxCell id="35" value="MySQLコンテナ" style="text;html=1;align=center;verticalAlign=middle;resizable=0;points=[];autosize=1;" vertex="1" parent="1">
                    <mxGeometry x="-192" y="-840" width="100" height="20" as="geometry"/>
                </mxCell>
                <mxCell id="36" value="RecoAppコンテナ" style="text;html=1;align=center;verticalAlign=middle;resizable=0;points=[];autosize=1;" vertex="1" parent="1">
                    <mxGeometry x="18" y="-840" width="110" height="20" as="geometry"/>
                </mxCell>
                <mxCell id="37" value="webapp" style="rounded=0;whiteSpace=wrap;html=1;" vertex="1" parent="1">
                    <mxGeometry x="47" y="-780" width="120" height="50" as="geometry"/>
                </mxCell>
                <mxCell id="38" value="Node:8" style="text;html=1;align=center;verticalAlign=middle;resizable=0;points=[];autosize=1;" vertex="1" parent="1">
                    <mxGeometry x="31.5" y="-820" width="50" height="20" as="geometry"/>
                </mxCell>
                <mxCell id="39" value="/usr/src/app" style="text;html=1;align=center;verticalAlign=middle;resizable=0;points=[];autosize=1;" vertex="1" parent="1">
                    <mxGeometry x="36.5" y="-800" width="80" height="20" as="geometry"/>
                </mxCell>
                <mxCell id="40" value="DB" style="shape=cylinder;whiteSpace=wrap;html=1;boundedLbl=1;backgroundOutline=1;" vertex="1" parent="1">
                    <mxGeometry x="-137.75" y="-800" width="70" height="60" as="geometry"/>
                </mxCell>
                <mxCell id="41" value="80" style="rounded=0;whiteSpace=wrap;html=1;" vertex="1" parent="1">
                    <mxGeometry x="-345.75" y="-720" width="60" height="30" as="geometry"/>
                </mxCell>
                <mxCell id="42" value="8070" style="rounded=0;whiteSpace=wrap;html=1;" vertex="1" parent="1">
                    <mxGeometry x="-345.75" y="-580" width="60" height="30" as="geometry"/>
                </mxCell>
                <mxCell id="43" value="3306" style="rounded=0;whiteSpace=wrap;html=1;" vertex="1" parent="1">
                    <mxGeometry x="-132.75" y="-720" width="60" height="30" as="geometry"/>
                </mxCell>
                <mxCell id="44" value="3306" style="rounded=0;whiteSpace=wrap;html=1;" vertex="1" parent="1">
                    <mxGeometry x="-131.75" y="-580" width="60" height="30" as="geometry"/>
                </mxCell>
                <mxCell id="45" value="8080" style="rounded=0;whiteSpace=wrap;html=1;" vertex="1" parent="1">
                    <mxGeometry x="79.75" y="-720" width="60" height="30" as="geometry"/>
                </mxCell>
                <mxCell id="46" value="49160" style="rounded=0;whiteSpace=wrap;html=1;" vertex="1" parent="1">
                    <mxGeometry x="79.75" y="-580" width="60" height="30" as="geometry"/>
                </mxCell>
                <mxCell id="47" value="" style="endArrow=classic;startArrow=classic;html=1;" edge="1" parent="1" source="4">
                    <mxGeometry width="50" height="50" relative="1" as="geometry">
                        <mxPoint x="31.5" y="-400" as="sourcePoint"/>
                        <mxPoint x="111.5" y="-550" as="targetPoint"/>
                        <Array as="points">
                            <mxPoint x="111.5" y="-400"/>
                        </Array>
                    </mxGeometry>
                </mxCell>
                <mxCell id="48" value="" style="endArrow=classic;startArrow=classic;html=1;" edge="1" parent="1">
                    <mxGeometry width="50" height="50" relative="1" as="geometry">
                        <mxPoint x="110.24999999999989" y="-580" as="sourcePoint"/>
                        <mxPoint x="111.13" y="-690" as="targetPoint"/>
                    </mxGeometry>
                </mxCell>
                <mxCell id="49" value="req" style="text;html=1;align=center;verticalAlign=middle;resizable=0;points=[];autosize=1;" vertex="1" parent="1">
                    <mxGeometry x="79.75" y="-680" width="30" height="20" as="geometry"/>
                </mxCell>
                <mxCell id="50" value="res" style="text;html=1;align=center;verticalAlign=middle;resizable=0;points=[];autosize=1;" vertex="1" parent="1">
                    <mxGeometry x="116.5" y="-400" width="30" height="20" as="geometry"/>
                </mxCell>
                <mxCell id="56" value="" style="endArrow=classic;startArrow=classic;html=1;exitX=0.5;exitY=0.07;exitDx=0;exitDy=0;exitPerimeter=0;" edge="1" parent="1">
                    <mxGeometry width="50" height="50" relative="1" as="geometry">
                        <mxPoint x="-315.75" y="-485.45000000000005" as="sourcePoint"/>
                        <mxPoint x="-315.37" y="-550" as="targetPoint"/>
                    </mxGeometry>
                </mxCell>
                <mxCell id="57" value="" style="endArrow=classic;startArrow=classic;html=1;" edge="1" parent="1">
                    <mxGeometry width="50" height="50" relative="1" as="geometry">
                        <mxPoint x="-316" y="-580" as="sourcePoint"/>
                        <mxPoint x="-315.8699999999999" y="-690" as="targetPoint"/>
                    </mxGeometry>
                </mxCell>
                <mxCell id="58" value="全て同じNetwork" style="text;html=1;align=center;verticalAlign=middle;resizable=0;points=[];autosize=1;" vertex="1" parent="1">
                    <mxGeometry x="-265.5" y="-870" width="110" height="20" as="geometry"/>
                </mxCell>
                <mxCell id="59" value="" style="shape=flexArrow;endArrow=classic;startArrow=classic;html=1;entryX=0;entryY=0.5;entryDx=0;entryDy=0;" edge="1" parent="1" target="31">
                    <mxGeometry width="50" height="50" relative="1" as="geometry">
                        <mxPoint x="-449" y="-770.5" as="sourcePoint"/>
                        <mxPoint x="-399" y="-770.5" as="targetPoint"/>
                    </mxGeometry>
                </mxCell>
                <mxCell id="61" value="" style="shape=flexArrow;endArrow=classic;startArrow=classic;html=1;entryX=0;entryY=0.5;entryDx=0;entryDy=0;" edge="1" parent="1">
                    <mxGeometry width="50" height="50" relative="1" as="geometry">
                        <mxPoint x="-237.5" y="-770.5" as="sourcePoint"/>
                        <mxPoint x="-182.5" y="-770" as="targetPoint"/>
                    </mxGeometry>
                </mxCell>
                <mxCell id="62" value="" style="shape=flexArrow;endArrow=classic;startArrow=classic;html=1;entryX=0;entryY=0.5;entryDx=0;entryDy=0;" edge="1" parent="1">
                    <mxGeometry width="50" height="50" relative="1" as="geometry">
                        <mxPoint x="-24.5" y="-770.5" as="sourcePoint"/>
                        <mxPoint x="30.5" y="-770" as="targetPoint"/>
                    </mxGeometry>
                </mxCell>
                <mxCell id="65" value="" style="endArrow=classic;startArrow=classic;html=1;" edge="1" parent="1">
                    <mxGeometry width="50" height="50" relative="1" as="geometry">
                        <mxPoint x="-103.25" y="-580" as="sourcePoint"/>
                        <mxPoint x="-102.36999999999989" y="-690" as="targetPoint"/>
                    </mxGeometry>
                </mxCell>
                <mxCell id="66" value="AWS/EC2/ubuntu(ホスト)" style="text;html=1;align=center;verticalAlign=middle;resizable=0;points=[];autosize=1;" vertex="1" parent="1">
                    <mxGeometry x="-670" y="-900" width="150" height="20" as="geometry"/>
                </mxCell>
                <mxCell id="68" value="" style="shape=flexArrow;endArrow=classic;startArrow=classic;html=1;entryX=0;entryY=0.75;entryDx=0;entryDy=0;" edge="1" parent="1" target="4">
                    <mxGeometry width="50" height="50" relative="1" as="geometry">
                        <mxPoint x="-610" y="-355" as="sourcePoint"/>
                        <mxPoint x="-560" y="-405" as="targetPoint"/>
                    </mxGeometry>
                </mxCell>
                <mxCell id="69" value="BLE" style="text;html=1;align=center;verticalAlign=middle;resizable=0;points=[];autosize=1;" vertex="1" parent="1">
                    <mxGeometry x="-277.5" y="-380" width="40" height="20" as="geometry"/>
                </mxCell>
                <mxCell id="70" value="PC" style="rounded=0;whiteSpace=wrap;html=1;" vertex="1" parent="1">
                    <mxGeometry x="-344.75" y="-485" width="60" height="40" as="geometry"/>
                </mxCell>
                <mxCell id="71" value="" style="shape=parallelogram;perimeter=parallelogramPerimeter;whiteSpace=wrap;html=1;" vertex="1" parent="1">
                    <mxGeometry x="-359.25" y="-445" width="74.5" height="30" as="geometry"/>
                </mxCell>
                <mxCell id="72" value="" style="endArrow=classic;startArrow=classic;html=1;exitX=1;exitY=0.5;exitDx=0;exitDy=0;" edge="1" parent="1" source="70">
                    <mxGeometry width="50" height="50" relative="1" as="geometry">
                        <mxPoint x="-180" y="-400" as="sourcePoint"/>
                        <mxPoint x="-100" y="-550" as="targetPoint"/>
                        <Array as="points">
                            <mxPoint x="-100" y="-465"/>
                        </Array>
                    </mxGeometry>
                </mxCell>
                <mxCell id="73" value="" style="rounded=0;whiteSpace=wrap;html=1;" vertex="1" parent="1">
                    <mxGeometry x="161.5" y="-470" width="68.5" height="120" as="geometry"/>
                </mxCell>
                <mxCell id="74" value="" style="rounded=0;whiteSpace=wrap;html=1;" vertex="1" parent="1">
                    <mxGeometry x="167" y="-345" width="70" height="20" as="geometry"/>
                </mxCell>
                <mxCell id="75" value="" style="rounded=0;whiteSpace=wrap;html=1;" vertex="1" parent="1">
                    <mxGeometry x="168" y="-400" width="58.5" height="40" as="geometry"/>
                </mxCell>
                <mxCell id="76" value="local&lt;br&gt;BLE" style="text;html=1;align=center;verticalAlign=middle;resizable=0;points=[];autosize=1;" vertex="1" parent="1">
                    <mxGeometry x="177.25" y="-395" width="40" height="30" as="geometry"/>
                </mxCell>
                <mxCell id="77" value="Chrome" style="text;html=1;align=center;verticalAlign=middle;resizable=0;points=[];autosize=1;" vertex="1" parent="1">
                    <mxGeometry x="165.75" y="-465" width="60" height="20" as="geometry"/>
                </mxCell>
                <mxCell id="78" value="" style="rounded=0;whiteSpace=wrap;html=1;" vertex="1" parent="1">
                    <mxGeometry x="895" y="-785" width="320" height="220" as="geometry"/>
                </mxCell>
                <mxCell id="79" value="Reco!側の流れ" style="text;html=1;align=center;verticalAlign=middle;resizable=0;points=[];autosize=1;" vertex="1" parent="1">
                    <mxGeometry x="495" y="-810" width="90" height="20" as="geometry"/>
                </mxCell>
                <mxCell id="85" value="&lt;span style=&quot;background-color: rgb(0 , 0 , 0)&quot;&gt;user&lt;/span&gt;" style="shape=umlActor;verticalLabelPosition=bottom;labelBackgroundColor=#ffffff;verticalAlign=top;html=1;outlineConnect=0;" vertex="1" parent="1">
                    <mxGeometry x="535" y="-480" width="30" height="60" as="geometry"/>
                </mxCell>
                <mxCell id="90" value="" style="rounded=0;whiteSpace=wrap;html=1;" vertex="1" parent="1">
                    <mxGeometry x="695" y="-560" width="100" height="160" as="geometry"/>
                </mxCell>
                <mxCell id="91" value="Reco!" style="text;html=1;align=center;verticalAlign=middle;resizable=0;points=[];autosize=1;" vertex="1" parent="1">
                    <mxGeometry x="720" y="-400" width="50" height="20" as="geometry"/>
                </mxCell>
                <mxCell id="92" value="" style="rounded=0;whiteSpace=wrap;html=1;" vertex="1" parent="1">
                    <mxGeometry x="705" y="-550" width="68.5" height="120" as="geometry"/>
                </mxCell>
                <mxCell id="93" value="" style="rounded=0;whiteSpace=wrap;html=1;" vertex="1" parent="1">
                    <mxGeometry x="710.5" y="-425" width="70" height="20" as="geometry"/>
                </mxCell>
                <mxCell id="94" value="" style="rounded=0;whiteSpace=wrap;html=1;" vertex="1" parent="1">
                    <mxGeometry x="711.5" y="-500" width="58.5" height="40" as="geometry"/>
                </mxCell>
                <mxCell id="95" value="localserver&lt;br&gt;BLE" style="text;html=1;align=center;verticalAlign=middle;resizable=0;points=[];autosize=1;" vertex="1" parent="1">
                    <mxGeometry x="705.75" y="-495" width="70" height="30" as="geometry"/>
                </mxCell>
                <mxCell id="98" value="" style="rounded=0;whiteSpace=wrap;html=1;strokeColor=#FFB366;" vertex="1" parent="1">
                    <mxGeometry x="925" y="-745" width="260" height="160" as="geometry"/>
                </mxCell>
                <mxCell id="99" value="AWSserver" style="text;html=1;align=center;verticalAlign=middle;resizable=0;points=[];autosize=1;" vertex="1" parent="1">
                    <mxGeometry x="835" y="-805" width="80" height="20" as="geometry"/>
                </mxCell>
                <mxCell id="100" value="&lt;font color=&quot;#ffb366&quot;&gt;RecoAppコンテナ&lt;/font&gt;" style="text;html=1;align=center;verticalAlign=middle;resizable=0;points=[];autosize=1;" vertex="1" parent="1">
                    <mxGeometry x="905" y="-765" width="110" height="20" as="geometry"/>
                </mxCell>
                <mxCell id="101" value="" style="rounded=0;whiteSpace=wrap;html=1;" vertex="1" parent="1">
                    <mxGeometry x="940.75" y="-729" width="228.5" height="95" as="geometry"/>
                </mxCell>
                <mxCell id="102" value="login" style="rounded=0;whiteSpace=wrap;html=1;" vertex="1" parent="1">
                    <mxGeometry x="965" y="-634" width="44.25" height="26" as="geometry"/>
                </mxCell>
                <mxCell id="103" value="logout" style="rounded=0;whiteSpace=wrap;html=1;" vertex="1" parent="1">
                    <mxGeometry x="1105" y="-634" width="44.25" height="26" as="geometry"/>
                </mxCell>
                <mxCell id="104" value="購入システム" style="rounded=0;whiteSpace=wrap;html=1;" vertex="1" parent="1">
                    <mxGeometry x="965" y="-713" width="185" height="65" as="geometry"/>
                </mxCell>
                <mxCell id="106" value="" style="endArrow=classic;html=1;entryX=0.5;entryY=1;entryDx=0;entryDy=0;exitX=1.01;exitY=0.374;exitDx=0;exitDy=0;exitPerimeter=0;" edge="1" parent="1" source="90" target="102">
                    <mxGeometry width="50" height="50" relative="1" as="geometry">
                        <mxPoint x="824" y="-500" as="sourcePoint"/>
                        <mxPoint x="985" y="-608" as="targetPoint"/>
                        <Array as="points">
                            <mxPoint x="987" y="-500"/>
                        </Array>
                    </mxGeometry>
                </mxCell>
                <mxCell id="107" value="" style="endArrow=classic;html=1;entryX=1;entryY=0.75;entryDx=0;entryDy=0;exitX=0.5;exitY=1;exitDx=0;exitDy=0;" edge="1" parent="1" source="103" target="90">
                    <mxGeometry width="50" height="50" relative="1" as="geometry">
                        <mxPoint x="1205" y="-440" as="sourcePoint"/>
                        <mxPoint x="1005" y="-455" as="targetPoint"/>
                        <Array as="points">
                            <mxPoint x="1127" y="-440"/>
                        </Array>
                    </mxGeometry>
                </mxCell>
                <mxCell id="109" value="http://~/logingo?&lt;br&gt;username=~&amp;amp;password=pass" style="text;html=1;align=center;verticalAlign=middle;resizable=0;points=[];autosize=1;" vertex="1" parent="1">
                    <mxGeometry x="815" y="-535" width="170" height="30" as="geometry"/>
                </mxCell>
                <mxCell id="110" value="http://IPアドレス:~/BLE" style="text;html=1;align=center;verticalAlign=middle;resizable=0;points=[];autosize=1;" vertex="1" parent="1">
                    <mxGeometry x="805" y="-435" width="140" height="20" as="geometry"/>
                </mxCell>
                <mxCell id="111" value="" style="rounded=0;whiteSpace=wrap;html=1;rotation=15;" vertex="1" parent="1">
                    <mxGeometry x="565" y="-485" width="30" height="50" as="geometry"/>
                </mxCell>
                <mxCell id="113" value="" style="endArrow=classic;html=1;entryX=-0.032;entryY=0.655;entryDx=0;entryDy=0;entryPerimeter=0;" edge="1" parent="1" target="90">
                    <mxGeometry width="50" height="50" relative="1" as="geometry">
                        <mxPoint x="595" y="-455" as="sourcePoint"/>
                        <mxPoint x="645" y="-505" as="targetPoint"/>
                    </mxGeometry>
                </mxCell>
                <mxCell id="114" value="username" style="text;html=1;align=center;verticalAlign=middle;resizable=0;points=[];autosize=1;" vertex="1" parent="1">
                    <mxGeometry x="609" y="-475" width="70" height="20" as="geometry"/>
                </mxCell>
                <mxCell id="115" value="BLE" style="text;html=1;align=center;verticalAlign=middle;resizable=0;points=[];autosize=1;" vertex="1" parent="1">
                    <mxGeometry x="624" y="-455" width="40" height="20" as="geometry"/>
                </mxCell>
                <mxCell id="119" value="" style="endArrow=classic;html=1;" edge="1" parent="1">
                    <mxGeometry width="50" height="50" relative="1" as="geometry">
                        <mxPoint x="987" y="-636" as="sourcePoint"/>
                        <mxPoint x="986.9300000000001" y="-648" as="targetPoint"/>
                    </mxGeometry>
                </mxCell>
                <mxCell id="123" value="" style="endArrow=classic;html=1;" edge="1" parent="1">
                    <mxGeometry width="50" height="50" relative="1" as="geometry">
                        <mxPoint x="1127.08" y="-649" as="sourcePoint"/>
                        <mxPoint x="1127.08" y="-635" as="targetPoint"/>
                    </mxGeometry>
                </mxCell>
                <mxCell id="124" value="全体像" style="text;html=1;align=center;verticalAlign=middle;resizable=0;points=[];autosize=1;" vertex="1" parent="1">
                    <mxGeometry x="-780" y="-970" width="50" height="20" as="geometry"/>
                </mxCell>
            </root>
        </mxGraphModel>
    </diagram>
</mxfile>